<?xml version="1.0" encoding="utf-8"?>
<!-- Generator: Adobe Illustrator 16.0.0, SVG Export Plug-In . SVG Version: 6.00 Build 0)  -->
<!DOCTYPE svg PUBLIC "-//W3C//DTD SVG 1.1//EN" "http://www.w3.org/Graphics/SVG/1.1/DTD/svg11.dtd">
<svg version="1.1" xmlns="http://www.w3.org/2000/svg" xmlns:xlink="http://www.w3.org/1999/xlink" x="0px" y="0px"
	 width="200px" height="174.414px" viewBox="0 0 767.974 174.414" enable-background="new 0 0 767.974 174.414"
	 xml:space="preserve">
<g id="Layer_1">
	<g>
		<g>
			<g>
				<linearGradient id="SVGID_1_" gradientUnits="userSpaceOnUse" x1="21.9902" y1="86.665" x2="733.2194" y2="86.665">
					<stop  offset="0" style="stop-color:#B31255"/>
					<stop  offset="0.5434" style="stop-color:#960E5E"/>
					<stop  offset="1" style="stop-color:#7B0A67"/>
				</linearGradient>
				<path fill="url(#SVGID_1_)" d="M271.362,48l-28.449,39.174v40.576c0,1.111-0.387,2.023-1.15,2.744
					c-0.766,0.723-1.703,1.09-2.807,1.09c-1.105,0-2.021-0.367-2.746-1.09c-0.721-0.721-1.084-1.633-1.084-2.744V87.299
					l-28.582-39.041c-0.682-0.766-1.023-1.662-1.023-2.676c0-1.027,0.43-1.918,1.279-2.684c0.848-0.764,1.791-1.152,2.807-1.152
					c1.361,0,2.426,0.6,3.193,1.791l26.412,35.98l25.771-35.98c0.938-1.191,2.043-1.791,3.32-1.791c1.021,0,1.916,0.41,2.682,1.215
					c0.764,0.809,1.146,1.682,1.146,2.621C272.132,46.178,271.876,46.984,271.362,48z"/>
				<linearGradient id="SVGID_2_" gradientUnits="userSpaceOnUse" x1="21.9902" y1="87.4932" x2="733.2195" y2="87.4932">
					<stop  offset="0" style="stop-color:#B31255"/>
					<stop  offset="0.5434" style="stop-color:#960E5E"/>
					<stop  offset="1" style="stop-color:#7B0A67"/>
				</linearGradient>
				<path fill="url(#SVGID_2_)" d="M434.048,43.346c0.723,0.727,1.084,1.639,1.084,2.742v52.826c0,6.213-1.488,11.91-4.469,17.096
					c-2.975,5.195-7.018,9.279-12.117,12.254c-5.107,2.975-10.721,4.463-16.844,4.463c-6.211,0-11.867-1.488-16.973-4.463
					s-9.145-7.059-12.125-12.254c-2.975-5.186-4.465-10.883-4.465-17.096V46.088c0-1.104,0.361-2.016,1.082-2.742
					c0.723-0.725,1.729-1.086,3.002-1.086c1.02,0,1.916,0.361,2.68,1.086c0.766,0.727,1.148,1.639,1.148,2.742v52.826
					c0,4.768,1.152,9.145,3.445,13.141c2.295,4.002,5.426,7.17,9.379,9.512c3.955,2.34,8.234,3.504,12.826,3.504
					c4.678,0,8.998-1.164,12.945-3.504c3.961-2.342,7.104-5.51,9.449-9.512c2.336-3.996,3.508-8.373,3.508-13.141V46.088
					c0-1.104,0.336-2.016,1.018-2.742c0.68-0.725,1.576-1.086,2.68-1.086C432.407,42.26,433.323,42.621,434.048,43.346z"/>
				<linearGradient id="SVGID_3_" gradientUnits="userSpaceOnUse" x1="21.9902" y1="86.9219" x2="733.2185" y2="86.9219">
					<stop  offset="0" style="stop-color:#B31255"/>
					<stop  offset="0.5434" style="stop-color:#960E5E"/>
					<stop  offset="1" style="stop-color:#7B0A67"/>
				</linearGradient>
				<path fill="url(#SVGID_3_)" d="M522.208,43.281c0.723,0.682,1.078,1.576,1.078,2.676c0,1.111-0.355,1.98-1.078,2.619
					s-1.645,0.953-2.744,0.953h-26.416v78.221c0,1.111-0.383,2.023-1.152,2.744c-0.758,0.723-1.697,1.09-2.801,1.09
					c-1.195,0-2.152-0.367-2.877-1.09c-0.721-0.721-1.082-1.633-1.082-2.744V49.529h-26.41c-1.107,0-2.023-0.336-2.746-1.016
					c-0.721-0.682-1.084-1.572-1.084-2.682c0-1.016,0.363-1.869,1.084-2.551c0.723-0.68,1.639-1.021,2.746-1.021h60.738
					C520.563,42.26,521.485,42.602,522.208,43.281z"/>
				<linearGradient id="SVGID_4_" gradientUnits="userSpaceOnUse" x1="21.9902" y1="86.9219" x2="733.222" y2="86.9219">
					<stop  offset="0" style="stop-color:#B31255"/>
					<stop  offset="0.5434" style="stop-color:#960E5E"/>
					<stop  offset="1" style="stop-color:#7B0A67"/>
				</linearGradient>
				<path fill="url(#SVGID_4_)" d="M596.146,125.199c0.729,0.766,1.09,1.662,1.09,2.682c0,1.105-0.361,1.996-1.09,2.678
					c-0.719,0.68-1.635,1.025-2.738,1.025h-46.83c-1.105,0-2.021-0.367-2.746-1.09c-0.721-0.721-1.082-1.633-1.082-2.744V46.088
					c0-1.104,0.361-2.016,1.082-2.742c0.725-0.725,1.641-1.086,2.746-1.086h46.83c1.104,0,2.02,0.361,2.738,1.086
					c0.729,0.727,1.09,1.639,1.09,2.742c0,1.105-0.361,2.002-1.09,2.678c-0.719,0.68-1.635,1.025-2.738,1.025h-42.619v32.025h25.828
					c1.105,0,2.018,0.361,2.738,1.084c0.723,0.723,1.09,1.639,1.09,2.744c0,1.111-0.367,2-1.09,2.682
					c-0.721,0.68-1.633,1.016-2.738,1.016h-25.828v34.711h42.619C594.511,124.053,595.427,124.436,596.146,125.199z"/>
				<linearGradient id="SVGID_5_" gradientUnits="userSpaceOnUse" x1="21.9902" y1="86.9219" x2="733.2203" y2="86.9219">
					<stop  offset="0" style="stop-color:#B31255"/>
					<stop  offset="0.5434" style="stop-color:#960E5E"/>
					<stop  offset="1" style="stop-color:#7B0A67"/>
				</linearGradient>
				<path fill="url(#SVGID_5_)" d="M347.489,125.199c0.723,0.766,1.09,1.662,1.09,2.682c0,1.105-0.367,1.996-1.09,2.678
					c-0.723,0.68-1.639,1.025-2.744,1.025h-46.83c-1.105,0-2.023-0.367-2.74-1.09c-0.729-0.721-1.084-1.633-1.084-2.744V46.088
					c0-1.104,0.355-2.016,1.084-2.742c0.717-0.725,1.635-1.086,2.74-1.086h46.83c1.105,0,2.021,0.361,2.744,1.086
					c0.723,0.727,1.09,1.639,1.09,2.742c0,1.105-0.367,2.002-1.09,2.678c-0.723,0.68-1.639,1.025-2.744,1.025h-42.621v32.025h25.83
					c1.105,0,2.021,0.361,2.744,1.084s1.09,1.639,1.09,2.744c0,1.111-0.367,2-1.09,2.682c-0.723,0.68-1.639,1.016-2.744,1.016
					h-25.83v34.711h42.621C345.851,124.053,346.767,124.436,347.489,125.199z"/>
				<linearGradient id="SVGID_6_" gradientUnits="userSpaceOnUse" x1="21.9902" y1="86.9219" x2="733.2188" y2="86.9219">
					<stop  offset="0" style="stop-color:#B31255"/>
					<stop  offset="0.5434" style="stop-color:#960E5E"/>
					<stop  offset="1" style="stop-color:#7B0A67"/>
				</linearGradient>
				<path fill="url(#SVGID_6_)" d="M766.886,43.346c0.723,0.727,1.088,1.68,1.088,2.875v81.404
					c-0.082,1.193-0.514,2.148-1.277,2.869c-0.764,0.723-1.703,1.09-2.807,1.09c-1.105,0-2.043-0.387-2.807-1.152
					c-0.766-0.764-1.148-1.695-1.148-2.807V89.604H708.13v38.021c-0.088,1.111-0.508,2.043-1.277,2.807
					c-0.764,0.766-1.703,1.152-2.807,1.152c-1.189,0-2.148-0.367-2.871-1.09c-0.723-0.721-1.084-1.676-1.084-2.869V46.221
					c0-1.195,0.383-2.148,1.148-2.875c0.764-0.725,1.742-1.086,2.938-1.086c1.1,0,2.037,0.383,2.807,1.152
					c0.766,0.764,1.146,1.697,1.146,2.809v35.977h51.805V46.221c0-1.111,0.404-2.045,1.211-2.809c0.811-0.77,1.77-1.152,2.871-1.152
					C765.21,42.26,766.163,42.621,766.886,43.346z"/>
				<linearGradient id="SVGID_7_" gradientUnits="userSpaceOnUse" x1="21.9902" y1="87.2832" x2="733.2205" y2="87.2832">
					<stop  offset="0" style="stop-color:#B31255"/>
					<stop  offset="0.5434" style="stop-color:#960E5E"/>
					<stop  offset="1" style="stop-color:#7B0A67"/>
				</linearGradient>
				<path fill="url(#SVGID_7_)" d="M653.769,133.213h-12.637c-15.752,0-29.496-12.814-29.496-28.563v-1.604V71.582v-1.66
					c0-15.748,12.816-28.568,28.57-28.568l13.768,0.025c14.584,1.516,25.582,13.727,25.582,28.412c0,2.199-1.785,3.99-3.99,3.99
					s-3.99-1.791-3.99-3.99c0-10.516-7.824-19.271-18.23-20.451h-13.139c-11.35,0-20.582,9.232-20.582,20.582v1.604l-0.006,31.465
					v1.66c0,11.348,10.16,20.582,21.514,20.582h12.213c11.1-0.275,18.23-9.936,18.23-20.451c0-2.199,1.785-3.99,3.99-3.99
					s3.99,1.791,3.99,3.99c0,14.686-10.998,26.896-25.582,28.41L653.769,133.213z"/>
			</g>
		</g>
		<linearGradient id="SVGID_8_" gradientUnits="userSpaceOnUse" x1="21.9902" y1="87.0264" x2="733.2197" y2="87.0264">
			<stop  offset="0" style="stop-color:#B31255"/>
			<stop  offset="0.5434" style="stop-color:#960E5E"/>
			<stop  offset="1" style="stop-color:#7B0A67"/>
		</linearGradient>
		<path fill="url(#SVGID_8_)" d="M77.13,174.053c-1.434,0-2.758-0.768-3.471-2.012l-22.873-39.963H4.001
			c-1.414,0-2.725-0.746-3.443-1.963c-0.721-1.219-0.744-2.725-0.063-3.965l22.148-40.264L0.544,47.99
			c-0.721-1.238-0.725-2.766-0.012-4.008s2.035-2.008,3.469-2.008h46.785L73.659,2.014C74.372,0.77,75.696,0,77.13,0
			c0.002,0,0.004,0,0.006,0c1.436,0.002,2.76,0.773,3.471,2.021l22.748,39.953h46.779c1.434,0,2.756,0.766,3.469,2.008
			s0.709,2.771-0.014,4.01l-22.275,38.162l22.135,39.654c0.445,0.645,0.705,1.428,0.705,2.27c0,2.209-1.791,4-4,4
			c-0.006,0-0.014,0-0.02,0h-46.779l-22.748,39.953c-0.711,1.248-2.035,2.02-3.471,2.021
			C77.134,174.053,77.132,174.053,77.13,174.053z M10.767,124.078h42.254c1.436,0,2.844,0.77,3.557,2.014l20.545,35.893
			L97.554,126.1c0.711-1.25,2.039-2.021,3.477-2.021h42.289l-20.105-36.018c-0.689-1.236-0.676-2.744,0.039-3.967l19.914-34.119
			h-42.055c-1.438,0-2.848-0.771-3.559-2.021L77.122,12.068L56.577,47.963c-0.713,1.244-2.037,2.012-3.473,2.012H10.964
			l19.732,33.84c0.707,1.213,0.727,2.711,0.049,3.941L10.767,124.078z"/>
		<linearGradient id="SVGID_9_" gradientUnits="userSpaceOnUse" x1="21.9902" y1="129.3594" x2="733.2198" y2="129.3594">
			<stop  offset="0" style="stop-color:#B31255"/>
			<stop  offset="0.5434" style="stop-color:#960E5E"/>
			<stop  offset="1" style="stop-color:#7B0A67"/>
		</linearGradient>
		<path fill="url(#SVGID_9_)" d="M77.021,174.414c-2.209,0-4-1.791-4-4V88.305c0-2.209,1.791-4,4-4s4,1.791,4,4v82.109
			C81.021,172.623,79.229,174.414,77.021,174.414z"/>
		<linearGradient id="SVGID_10_" gradientUnits="userSpaceOnUse" x1="21.9902" y1="67.3301" x2="733.2197" y2="67.3301">
			<stop  offset="0" style="stop-color:#B31255"/>
			<stop  offset="0.5434" style="stop-color:#960E5E"/>
			<stop  offset="1" style="stop-color:#7B0A67"/>
		</linearGradient>
		<path fill="url(#SVGID_10_)" d="M76.964,91.143c-1.4,0-2.76-0.736-3.494-2.045c-1.078-1.928-0.391-4.365,1.537-5.445
			l70.771-39.625c1.926-1.078,4.363-0.391,5.443,1.537s0.393,4.365-1.535,5.443L78.915,90.633
			C78.296,90.979,77.626,91.143,76.964,91.143z"/>
		<linearGradient id="SVGID_11_" gradientUnits="userSpaceOnUse" x1="21.9902" y1="67.3311" x2="733.2195" y2="67.3311">
			<stop  offset="0" style="stop-color:#B31255"/>
			<stop  offset="0.5434" style="stop-color:#960E5E"/>
			<stop  offset="1" style="stop-color:#7B0A67"/>
		</linearGradient>
		<path fill="url(#SVGID_11_)" d="M76.958,91.143c-0.662,0-1.334-0.164-1.951-0.51L4.235,51.008C2.308,49.93,1.62,47.492,2.7,45.564
			s3.518-2.613,5.443-1.537l70.771,39.625c1.928,1.08,2.615,3.518,1.535,5.445C79.718,90.406,78.358,91.143,76.958,91.143z"/>
	</g>
</g>
<g id="Layer_2" display="none">
</g>
</svg>
